# xmcd CD database file
#
# Track frame offsets:
#	187
#	9750
#	23482
#	36245
#	40022
#	52597
#	62920
#	74955
#	86867
#	89295
#	102060
#	117840
#	148997
#
# Disc length: 2170 seconds
#
# Revision: 2
# Processed by: cddbd v1.5.1PL0 Copyright (c) Steve Scherf et al.
# Submitted via: CDex 1.51
#
DISCID=a708780d
DTITLE=Riders in the Sky - Horse Opera
DYEAR=1990
DGENRE=Country
TTITLE0=Ride Cowboy Ride
TTITLE1=Maybe I'll Cry Over You
TTITLE2=Texas Echo
TTITLE3=Slocum Intro
TTITLE4=What Would I do Without You
TTITLE5=The Arms of my Love
TTITLE6=Homecoming Yodel
TTITLE7=Call of the Canyon
TTITLE8=Drywall Intro
TTITLE9=Livin' in a Mobile Home
TTITLE10=The Line Rider
TTITLE11=Sidekick Heaven
TTITLE12=Somebody's Got to Do It
EXTD=YEAR: 1990
EXTT0=
EXTT1=
EXTT2=
EXTT3=
EXTT4=
EXTT5=
EXTT6=
EXTT7=
EXTT8=
EXTT9=
EXTT10=
EXTT11=
EXTT12=
PLAYORDER=
